<svg width="34" height="33" viewBox="0 0 34 33" fill="none" xmlns="http://www.w3.org/2000/svg">
<path d="M29.75 22H25.5C24.7486 22 24.0279 22.2897 23.4965 22.8055C22.9652 23.3212 22.6667 24.0207 22.6667 24.75V28.875M29.75 28.875V28.8888M17 9.625V13.75C17 14.4793 16.7015 15.1788 16.1701 15.6945C15.6388 16.2103 14.9181 16.5 14.1667 16.5H9.91667M4.25 16.5H4.26417M17 4.125H17.0142M17 22V22.0138M22.6667 16.5H24.0833M29.75 16.5V16.5138M17 28.875V27.5M5.66667 4.125H9.91667C10.6991 4.125 11.3333 4.74061 11.3333 5.5V9.625C11.3333 10.3844 10.6991 11 9.91667 11H5.66667C4.88426 11 4.25 10.3844 4.25 9.625V5.5C4.25 4.74061 4.88426 4.125 5.66667 4.125ZM24.0833 4.125H28.3333C29.1157 4.125 29.75 4.74061 29.75 5.5V9.625C29.75 10.3844 29.1157 11 28.3333 11H24.0833C23.3009 11 22.6667 10.3844 22.6667 9.625V5.5C22.6667 4.74061 23.3009 4.125 24.0833 4.125ZM5.66667 22H9.91667C10.6991 22 11.3333 22.6156 11.3333 23.375V27.5C11.3333 28.2594 10.6991 28.875 9.91667 28.875H5.66667C4.88426 28.875 4.25 28.2594 4.25 27.5V23.375C4.25 22.6156 4.88426 22 5.66667 22Z" stroke="#446732" stroke-width="2" stroke-linecap="round" stroke-linejoin="round"/>
</svg>
