<svg width="57" height="24" viewBox="0 0 57 24" fill="none" xmlns="http://www.w3.org/2000/svg">
<path d="M12.011 4.86969L18.9932 4.8263M16.9873 3.06819L16.9983 4.8387C17.0226 8.74975 14.809 11.9346 12.055 11.9517" stroke="#006E1A" stroke-width="2" stroke-linecap="round" stroke-linejoin="round"/>
<path d="M13.0303 8.40451C13.0421 10.3025 15.9962 11.8458 19.7352 11.904M20.0729 18.0989L24.0132 10.1068L28.0526 18.0493M27.1438 16.2844L20.9596 16.3228" stroke="#006E1A" stroke-width="2" stroke-linecap="round" stroke-linejoin="round"/>
<g clip-path="url(#clip0_72_325)">
</g>
<rect x="0.5" y="0.5" width="56" height="22" rx="7.5" stroke="#006E1A"/>
<g clip-path="url(#clip1_72_325)">
<path fill-rule="evenodd" clip-rule="evenodd" d="M39.7071 15.707C39.5196 15.8945 39.2653 15.9998 39.0001 15.9998C38.7349 15.9998 38.4806 15.8945 38.2931 15.707L32.6361 10.05C32.5406 9.95776 32.4644 9.84742 32.412 9.72541C32.3596 9.60341 32.332 9.47219 32.3308 9.33941C32.3297 9.20663 32.355 9.07495 32.4053 8.95205C32.4556 8.82916 32.5298 8.7175 32.6237 8.62361C32.7176 8.52972 32.8292 8.45547 32.9521 8.40519C33.075 8.3549 33.2067 8.3296 33.3395 8.33076C33.4723 8.33191 33.6035 8.3595 33.7255 8.41191C33.8475 8.46431 33.9579 8.5405 34.0501 8.63601L39.0001 13.586L43.9501 8.63601C44.1387 8.45385 44.3913 8.35305 44.6535 8.35533C44.9157 8.35761 45.1665 8.46278 45.3519 8.64819C45.5373 8.8336 45.6425 9.08441 45.6448 9.34661C45.6471 9.6088 45.5463 9.86141 45.3641 10.05L39.7071 15.707Z" fill="#006E1A"/>
</g>
<defs>
<clipPath id="clip0_72_325">
<rect width="57" height="23" rx="8" fill="white"/>
</clipPath>
<clipPath id="clip1_72_325">
<rect width="24" height="24" fill="white" transform="translate(27)"/>
</clipPath>
</defs>
</svg>
