<svg width="20" height="22" viewBox="0 0 20 22" fill="none" xmlns="http://www.w3.org/2000/svg">
<path d="M16.961 17H2.96097M9.96097 17V11M12.961 17V13M6.96097 17V13M16.961 21V10.33C17.3323 10.1947 17.6732 9.98734 17.9642 9.7199C18.2552 9.45246 18.4905 9.13017 18.6566 8.77155C18.8226 8.41293 18.9163 8.02504 18.932 7.63014C18.9478 7.23524 18.8854 6.84111 18.7484 6.47039C18.6115 6.09967 18.4026 5.75965 18.1339 5.46986C17.8652 5.18007 17.5419 4.94621 17.1825 4.78171C16.8232 4.61721 16.4349 4.52531 16.0399 4.51129C15.6449 4.49727 15.2511 4.5614 14.881 4.7C14.511 2.874 12.421 1 9.96097 1C7.50097 1 5.41097 2.874 5.04097 4.7C4.29439 4.42417 3.46881 4.45623 2.74586 4.7891C2.0229 5.12198 1.4618 5.72842 1.18597 6.475C0.910146 7.22158 0.942198 8.04716 1.27507 8.77011C1.60795 9.49307 2.21439 10.0542 2.96097 10.33V21H16.961Z" stroke="#006E1A" stroke-width="2"/>
</svg>
